<svg width="571" height="571" viewBox="0 0 571 571" fill="none" xmlns="http://www.w3.org/2000/svg">
<mask id="mask0_485_1785" style="mask-type:luminance" maskUnits="userSpaceOnUse" x="0" y="0" width="571" height="571">
<circle cx="285.5" cy="285.5" r="285" fill="white" stroke="white"/>
</mask>
<g mask="url(#mask0_485_1785)">
<circle cx="285.5" cy="285.5" r="285.5" fill="#40E49F"/>
<path d="M167.35 153.867C167.35 153.867 151.173 297.304 149.381 314.951C147.59 332.598 148.805 400.111 149.524 408.008C150.243 415.905 174.595 405.982 189.149 405.959C203.704 405.935 229.672 389.938 235.767 389.294C241.863 388.653 231.421 351.669 231.421 351.669C231.421 351.669 208.893 337.082 203.548 330.409C198.203 323.739 170.197 154.922 167.35 153.867Z" fill="#7D7D7D"/>
<path d="M289.839 436.888C330.678 430.412 359.242 396.442 353.638 361.014C348.034 325.587 320.56 307.489 279.721 313.965C238.883 320.443 210.32 354.414 215.923 389.841C221.526 425.268 249.002 443.366 289.839 436.888Z" fill="#DEDEDE"/>
<path d="M197.873 106.592C223.76 84.5231 253.969 79.5725 305.367 72.4596C345.504 77.5597 378.593 88.7419 401.36 176.598C424.126 264.451 427.973 294.494 378.146 324.48C328.317 354.464 262.964 360.987 230.476 353.254C207.192 347.711 187.468 327.938 177.777 312.045C163.758 289.052 151.274 254.058 158.695 222.638C173.639 159.362 157.849 140.714 197.873 106.592Z" fill="#DEDEDE"/>
<path d="M199.612 221.226C204.727 221.839 208.96 218.675 210.264 207.778C211.567 196.882 207.966 194.136 202.85 193.523C197.737 192.911 193.045 194.663 191.743 205.559C190.44 216.454 194.497 220.613 199.612 221.226Z" fill="#7D7D7D"/>
<path d="M281.975 233.244C287.497 234.024 292.35 230.62 293.899 220.477C295.448 210.336 291.758 205.546 286.233 204.768C280.709 203.99 275.444 207.512 273.894 217.654C272.346 227.796 276.451 232.465 281.975 233.244Z" fill="#7D7D7D"/>
<path d="M358.672 341.894C358.672 341.894 360.522 358.397 350.521 373.433C340.52 388.47 331.494 397.088 316.543 404.682C301.591 412.274 279.698 415.061 263.409 411.923C247.123 408.786 234.329 402.541 227.367 390.368C220.408 378.198 217.262 363.089 222.478 353.972C227.696 344.854 207.161 354.201 197.622 358.025C188.086 361.85 162.914 380.76 162.914 380.76C162.935 380.598 142.993 389.226 127.589 410.066C112.183 430.907 105.269 466.343 104.779 497.072C103.406 540.558 101.935 571.4 102.002 569.311L295.299 571L496 570.28L495.199 510.856C495.199 510.856 495.909 463.086 485.071 431.476C480.313 417.601 469.464 396.439 433.875 380.378C386.992 359.22 358.284 341.563 358.672 341.894Z" fill="#F3F3F3"/>
<path d="M221.543 350.295C221.543 350.295 232.932 357.642 261.282 355.072C289.633 352.502 312.864 348.41 326.085 341.9C340.878 334.615 285.556 359.659 271.881 361.75C258.205 363.841 246.081 363.709 235.799 358.563C225.516 353.416 222.137 350.383 221.543 350.295Z" fill="#C4C4C4"/>
<path d="M260.238 83.2857C252.173 67.1569 288.248 61.7603 319.341 67.0907C350.434 72.4211 381.232 111.982 381.232 111.982C400.944 142.327 398.702 136.764 416.793 183.197C430.06 217.255 428.638 350.722 429.97 381.606C432.623 443.141 440.796 543.211 435.107 554.286C429.417 565.364 404.761 562.66 385.257 560.911C365.753 559.161 344.133 560.748 340.412 550.844C336.692 540.939 340.412 423.946 340.412 401.45C340.412 369.681 339.565 324.666 342.086 307.493C346.552 277.074 340.471 281.005 342.086 251.913C343.295 230.166 344.651 206.3 340.412 183.197C336.174 160.095 333.292 147.375 319.341 132.152C305.389 116.928 269.381 101.573 260.238 83.2857Z" fill="#7D7D7D"/>
<path d="M261.133 88.2906C261.133 88.2906 242.397 93.7652 225.673 100.574C213.665 105.462 194.107 118.268 187.588 126.522C171.992 146.27 172.512 154.277 165.382 180.482C164.307 184.433 162.903 148.198 175.235 122.701C186.702 98.9937 203.644 92.7714 221.527 80.6933C239.852 68.3175 250.159 67.1252 262.04 64.4666C277.868 60.9254 308.085 78.7017 308.085 78.7017L261.133 88.2906Z" fill="#7D7D7D"/>
<path d="M217.403 187.699L173.256 181.488C163.998 180.186 155.438 186.643 154.137 195.91L149.305 230.325C148.003 239.593 154.454 248.162 163.712 249.464L207.859 255.675C217.117 256.977 225.677 250.52 226.978 241.253L231.81 206.837C233.112 197.57 226.661 189.001 217.403 187.699Z" stroke="#909090" stroke-width="4" stroke-linecap="round" stroke-linejoin="round"/>
<path d="M323.118 203.906L276.494 197.347C267.92 196.141 259.992 202.121 258.787 210.703L253.592 247.705C252.387 256.287 258.361 264.223 266.936 265.429L313.559 271.988C322.134 273.194 330.061 267.214 331.266 258.632L336.461 221.631C337.666 213.048 331.692 205.112 323.118 203.906Z" stroke="#909090" stroke-width="4" stroke-linecap="round" stroke-linejoin="round"/>
<path d="M233.522 214.542C238.297 209.795 250.72 212.444 255.056 216.786" stroke="#909090" stroke-width="4" stroke-linecap="round"/>
<path d="M151.195 340.469L147.738 416.661C147.738 416.661 134.84 541.307 143.876 548.874C152.912 556.441 181.035 554.83 198.825 555.512C217.273 554.935 236.736 559.163 241.338 550.498C246.128 540.796 237.004 460.469 232.814 442.96C228.999 415.575 227.734 392.931 224.17 376.894L222.7 351.056L185.916 335.366L151.195 340.469Z" fill="#7D7D7D"/>
<path d="M222.067 300.725C221.704 299.115 229.575 302.917 237.113 303.58C243.669 304.157 250.995 302.289 251.31 303.689C254.676 303.417 245.543 315.496 236.47 316.232C227.529 315.623 218.402 301.814 222.067 300.725Z" fill="#BABABA"/>
</g>
</svg>
