<svg width="25" height="24" viewBox="0 0 25 24" fill="none" xmlns="http://www.w3.org/2000/svg">
<path d="M23.7531 2.91022C23.8932 3.05081 23.9719 3.24122 23.9719 3.43972C23.9719 3.63823 23.8932 3.82864 23.7531 3.96922L22.1886 5.53522L19.1886 2.53522L20.7531 0.969224C20.8937 0.82862 21.0844 0.749634 21.2833 0.749634C21.4822 0.749634 21.6729 0.82862 21.8136 0.969224L23.7531 2.90872V2.91022ZM21.1281 6.59422L18.1281 3.59422L7.90856 13.8152C7.82601 13.8978 7.76386 13.9984 7.72706 14.1092L6.51956 17.7302C6.49766 17.7962 6.49455 17.867 6.51058 17.9347C6.52661 18.0024 6.56114 18.0643 6.61032 18.1135C6.6595 18.1626 6.72139 18.1972 6.78907 18.2132C6.85675 18.2292 6.92755 18.2261 6.99356 18.2042L10.6146 16.9967C10.7252 16.9604 10.8259 16.8987 10.9086 16.8167L21.1281 6.59572V6.59422Z" fill="#40DBE4"/>
<path fill-rule="evenodd" clip-rule="evenodd" d="M2 20.2502C2 20.847 2.23705 21.4193 2.65901 21.8412C3.08097 22.2632 3.65326 22.5002 4.25 22.5002H20.75C21.3467 22.5002 21.919 22.2632 22.341 21.8412C22.7629 21.4193 23 20.847 23 20.2502V11.2502C23 11.0513 22.921 10.8606 22.7803 10.7199C22.6397 10.5793 22.4489 10.5002 22.25 10.5002C22.0511 10.5002 21.8603 10.5793 21.7197 10.7199C21.579 10.8606 21.5 11.0513 21.5 11.2502V20.2502C21.5 20.4492 21.421 20.6399 21.2803 20.7806C21.1397 20.9212 20.9489 21.0002 20.75 21.0002H4.25C4.05109 21.0002 3.86032 20.9212 3.71967 20.7806C3.57902 20.6399 3.5 20.4492 3.5 20.2502V3.75024C3.5 3.55133 3.57902 3.36057 3.71967 3.21991C3.86032 3.07926 4.05109 3.00024 4.25 3.00024H14C14.1989 3.00024 14.3897 2.92123 14.5303 2.78057C14.671 2.63992 14.75 2.44916 14.75 2.25024C14.75 2.05133 14.671 1.86057 14.5303 1.71991C14.3897 1.57926 14.1989 1.50024 14 1.50024H4.25C3.65326 1.50024 3.08097 1.7373 2.65901 2.15925C2.23705 2.58121 2 3.15351 2 3.75024V20.2502Z" fill="#40DBE4"/>
</svg>
