<svg width="31" height="22" viewBox="0 0 31 22" fill="none" xmlns="http://www.w3.org/2000/svg">
<path d="M25.5006 0.5H5.50055C4.84395 0.5 4.19377 0.629329 3.58714 0.880602C2.98051 1.13188 2.42931 1.50017 1.96502 1.96447C1.02734 2.90215 0.500555 4.17392 0.500555 5.5V16.29C0.485341 17.3288 0.783461 18.3481 1.35605 19.215C1.92864 20.082 2.74913 20.7562 3.71055 21.15C4.61711 21.5165 5.61383 21.5979 6.56787 21.3836C7.52191 21.1692 8.38795 20.6691 9.05055 19.95L13.2806 15.5H17.7206L21.9506 19.95C22.6123 20.6703 23.4784 21.1712 24.4328 21.3857C25.3871 21.6001 26.3842 21.5179 27.2906 21.15C28.252 20.7562 29.0725 20.082 29.6451 19.215C30.2176 18.3481 30.5158 17.3288 30.5006 16.29V5.5C30.5006 4.17392 29.9738 2.90215 29.0361 1.96447C28.0984 1.02678 26.8266 0.5 25.5006 0.5ZM11.5006 9.5H9.50055V11.5C9.50055 11.7652 9.3952 12.0196 9.20766 12.2071C9.02012 12.3946 8.76577 12.5 8.50055 12.5C8.23534 12.5 7.98098 12.3946 7.79345 12.2071C7.60591 12.0196 7.50055 11.7652 7.50055 11.5V9.5H5.50055C5.23534 9.5 4.98098 9.39464 4.79345 9.20711C4.60591 9.01957 4.50055 8.76522 4.50055 8.5C4.50055 8.23478 4.60591 7.98043 4.79345 7.79289C4.98098 7.60536 5.23534 7.5 5.50055 7.5H7.50055V5.5C7.50055 5.23478 7.60591 4.98043 7.79345 4.79289C7.98098 4.60536 8.23534 4.5 8.50055 4.5C8.76577 4.5 9.02012 4.60536 9.20766 4.79289C9.3952 4.98043 9.50055 5.23478 9.50055 5.5V7.5H11.5006C11.7658 7.5 12.0201 7.60536 12.2077 7.79289C12.3952 7.98043 12.5006 8.23478 12.5006 8.5C12.5006 8.76522 12.3952 9.01957 12.2077 9.20711C12.0201 9.39464 11.7658 9.5 11.5006 9.5ZM22.5006 12.5C21.7094 12.5 20.9361 12.2654 20.2783 11.8259C19.6205 11.3864 19.1078 10.7616 18.805 10.0307C18.5023 9.29983 18.4231 8.49556 18.5774 7.71964C18.7318 6.94371 19.1127 6.23098 19.6721 5.67157C20.2315 5.11216 20.9443 4.7312 21.7202 4.57686C22.4961 4.42252 23.3004 4.50173 24.0313 4.80448C24.7622 5.10723 25.3869 5.61992 25.8264 6.27772C26.266 6.93552 26.5006 7.70887 26.5006 8.5C26.5006 9.56087 26.0791 10.5783 25.329 11.3284C24.5788 12.0786 23.5614 12.5 22.5006 12.5ZM24.5006 8.5C24.5006 8.89556 24.3833 9.28224 24.1635 9.61114C23.9437 9.94004 23.6314 10.1964 23.2659 10.3478C22.9005 10.4991 22.4983 10.5387 22.1104 10.4616C21.7224 10.3844 21.366 10.1939 21.0863 9.91421C20.8066 9.63451 20.6162 9.27814 20.539 8.89018C20.4618 8.50222 20.5014 8.10009 20.6528 7.73463C20.8042 7.36918 21.0605 7.05682 21.3894 6.83706C21.7183 6.6173 22.105 6.5 22.5006 6.5C23.031 6.5 23.5397 6.71071 23.9148 7.08579C24.2898 7.46086 24.5006 7.96957 24.5006 8.5Z" fill="#40DBE4"/>
</svg>
